<svg xmlns="http://www.w3.org/2000/svg" version="1.1" xmlns:xlink="http://www.w3.org/1999/xlink" xmlns:svgjs="http://svgjs.dev/svgjs" width="1000" height="1313" viewBox="0 0 1000 1313"><g transform="matrix(1,0,0,1,-0.8510637318398153,0.5315789473684163)"><svg viewBox="0 0 188 247" data-background-color="#050816" preserveAspectRatio="xMidYMid meet" height="1313" width="1000" xmlns="http://www.w3.org/2000/svg" xmlns:xlink="http://www.w3.org/1999/xlink"><g id="tight-bounds" transform="matrix(1,0,0,1,0.1600000184141095,-0.09999999999999432)"><svg viewBox="0 0 187.6795389282103 247.2" height="247.2" width="187.6795389282103"><g><svg></svg></g><g><svg viewBox="0 0 187.6795389282103 247.2" height="247.2" width="187.6795389282103"><g transform="matrix(1,0,0,1,0,47.215199999999996)"><svg viewBox="0 0 187.6795389282103 152.7696" height="152.7696" width="187.6795389282103"><g><svg viewBox="0 0 187.6795389282103 152.7696" height="152.7696" width="187.6795389282103"><g><svg viewBox="0 0 187.6795389282103 152.7696" height="152.7696" width="187.6795389282103"><g><svg viewBox="0 0 187.6795389282103 152.7696" height="152.7696" width="187.6795389282103"><g id="textblocktransform"><svg viewBox="0 0 187.6795389282103 152.7696" height="152.7696" width="187.6795389282103" id="textblock"><g><svg viewBox="0 0 187.6795389282103 152.7696" height="152.7696" width="187.6795389282103"><g transform="matrix(1,0,0,1,0,0)"><svg width="187.6795389282103" viewBox="-0.949999988079071 -41.650001525878906 60.75 49.45000076293945" height="152.7696" data-palette-color="#ff0000"><path d="M55.95-36.75L55.95-36.75 53.85-36.3Q50.45-30 47.7-20.2L47.7-20.2Q46.75-16.8 44.8-12.63 42.85-8.45 40.15-4.95L40.15-4.95Q30.2 7.8 14.7 7.8L14.7 7.8Q7.5 7.8 3.25 4.7L3.25 4.7Q0.35 2.55-0.6-0.9L-0.6-0.9Q-0.95-2.15-0.95-4.1-0.95-6.05 0.08-8.72 1.1-11.4 3.4-13.48 5.7-15.55 7.05-15.65L7.05-15.65Q7.55-15.65 7.65-15.5L7.65-15.5Q7.8-15.3 7.1-14.95L7.1-14.95Q5.55-14.3 3.65-12L3.65-12Q0.7-8.5 0.7-4.1L0.7-4.1Q0.7-0.75 2.85 1.65L2.85 1.65Q5.55 4.65 10.5 5.75L10.5 5.75Q12.7 6.25 13.85 6.25 15 6.25 16.23 6.23 17.45 6.2 19.45 5.7L19.45 5.7Q23.6 4.65 27.4 2.3 31.2-0.05 33.9-2.78 36.6-5.5 38.9-8.8L38.9-8.8Q42.8-14.45 44.8-19.9L44.8-19.9Q48.3-29.15 52.3-36.05L52.3-36.05Q44.35-34.4 39.65-32.4L39.65-32.4Q34.85-30.3 32.2-27.7L32.2-27.7Q28.9-24.35 27.95-20.15L27.95-20.15Q27.65-18.95 27.65-17.95L27.65-17.95Q27.65-15.85 28.8-14.55 29.95-13.25 31.28-13.25 32.6-13.25 34.13-13.85 35.65-14.45 36.8-15.85L36.8-15.85Q38.4-17.9 38.4-20.7L38.4-20.7Q38.4-22.1 38-22.45L38-22.45Q37.9-22.6 38.1-22.9L38.1-22.9Q38.6-23.65 39.05-22.9L39.05-22.9Q39.7-21.65 39.7-20.18 39.7-18.7 38.75-16.95L38.75-16.95Q37.05-13.75 33.85-12.55L33.85-12.55Q32.25-11.95 30.43-11.95 28.6-11.95 26.5-13.6 24.4-15.25 24.4-18.2L24.4-18.2Q24.4-19.1 24.6-20.15L24.6-20.15Q27.45-33 53.1-37.35L53.1-37.35Q53.55-38.3 54.73-39.7 55.9-41.1 56.73-41.38 57.55-41.65 58.1-41.65L58.1-41.65Q59.75-41.65 59.8-40.25L59.8-40.25Q59.8-38.75 58.6-37.95L58.6-37.95Q57.5-37.25 55.95-36.75ZM54.7-37.55L54.7-37.55Q58.1-38.25 57.95-39.45L57.95-39.45Q57.85-40.05 57.28-40.05 56.7-40.05 54.7-37.55Z" opacity="1" transform="matrix(1,0,0,1,0,0)" fill="#ff0000" class="undefined-text-0" data-fill-palette-color="primary" id="text-0"></path></svg></g></svg></g></svg></g></svg></g><g></g></svg></g></svg></g></svg></g><path d="M0 41.215L0 1 187.68 1 187.68 41.215 173.903 41.215 173.903 14.777 13.777 14.777 13.777 41.215 0 41.215M0 205.985L0 246.2 187.68 246.2 187.68 205.985 173.903 205.985 173.903 232.423 13.777 232.423 13.777 205.985 0 205.985" fill="#ff0000" stroke="transparent" data-fill-palette-color="primary"></path></svg></g><defs></defs></svg><rect width="187.6795389282103" height="247.2" fill="none" stroke="none" visibility="hidden"></rect></g></svg></g></svg>